<svg xmlns="http://www.w3.org/2000/svg" class="diagram-root" style="background: #f5f6f6" xmlns:xlink="http://www.w3.org/1999/xlink"><style>.diagram-root { font-family: "Helvetica Neue", sans-serif; font-size: 12px; } .t { overflow: visible; } .t-bg { y: 40; fill: #fff;   } .th { fill: #005aa0;   } .tht { fill: #fff; font-size: 14px;  } .tf { fill: #323c46; overflow: visible; } .tf.pk { fill: #005aa0; font-weight: bold; } .tf.fk { font-weight: bold; } .ty { fill: #adb1b5; font-weight: normal; text-anchor: end; } .r { fill: transparent; stroke: #c3c3c3; stroke-width: 1; } .l { stroke: 1; } .i { fill: #c2c7ce; stroke: #c2c7ce; } .i.ix { fill: #afb3b6; stroke: #000; } .fa { fill: transparent; overflow: visible; } .fa .bg.hover { fill: #f7f7f7; } .c { cy: 12; r: 4; stroke: #d2d2dc; fill: #d2d2dc; } .hr { fill: transparent; stroke: #323c46; stroke-opacity: 0.035; stroke-width: 13; } .dc { stroke: #fa5a3c; fill: #fa5a3c; } .x { stroke: white; stroke-width: 1; } .hl .th { fill: #1b9bff; } .hl .tht {  } .fhl .bg { fill: #e7f4ff; } .fhls .bg {  } .r.hl { stroke: #1b9bff; } .dim { opacity: 0.25; }</style><g class="drawing-wrapper" transform="translate(2 18) scale(1)"><g class="rs"><path class="r" id="h3304753978" d="M 517 296 m -1 0 a 1 1 0 1 0 2 0 a 1 1 0 1 0 -2 0 M 517 296 m -0.5 0 a 0.5 0.5 0 1 0 1 0 a 0.5 0.5 0 1 0 -1 0 M 517 296 L 517 296 L 505 296 M 511 302 L 511 302 L 511 290 M 505 296 Q 426.59 296 348.18 191.5 T 191.36 87 M 179.36 87 m -1 0 a 1 1 0 1 0 2 0 a 1 1 0 1 0 -2 0 M 179.36 87 m -0.5 0 a 0.5 0.5 0 1 0 1 0 a 0.5 0.5 0 1 0 -1 0 M 179.36 87 L 179.36 87 L 191.36 87 M 185.36 93 L 185.36 93 L 185.36 81" /><path class="r" id="h3782856632" d="M 517 321 m -1 0 a 1 1 0 1 0 2 0 a 1 1 0 1 0 -2 0 M 517 321 m -0.5 0 a 0.5 0.5 0 1 0 1 0 a 0.5 0.5 0 1 0 -1 0 M 517 321 L 517 321 L 505 321 M 511 327 L 511 327 L 511 315 M 505 321 Q 472.34 321 439.68 296.5 T 374.36 272 M 362.36 272 m -1 0 a 1 1 0 1 0 2 0 a 1 1 0 1 0 -2 0 M 362.36 272 m -0.5 0 a 0.5 0.5 0 1 0 1 0 a 0.5 0.5 0 1 0 -1 0 M 362.36 272 L 362.36 272 L 374.36 272 M 368.36 278 L 368.36 278 L 368.36 266" /><path class="r" id="h4247927509" d="M 354.36 87 m -1 0 a 1 1 0 1 0 2 0 a 1 1 0 1 0 -2 0 M 354.36 87 m -0.5 0 a 0.5 0.5 0 1 0 1 0 a 0.5 0.5 0 1 0 -1 0 M 354.36 87 L 354.36 87 L 366.36 87 M 360.36 93 L 360.36 93 L 360.36 81 M 366.36 87 Q 405.52 87 444.68 87 T 523 87 M 535 87 m -1 0 a 1 1 0 1 0 2 0 a 1 1 0 1 0 -2 0 M 535 87 m -0.5 0 a 0.5 0.5 0 1 0 1 0 a 0.5 0.5 0 1 0 -1 0 M 535 87 L 535 87 L 523 87 M 529 93 L 529 93 L 529 81" /><path class="r" id="h221257298" d="M 535 87 m -1 0 a 1 1 0 1 0 2 0 a 1 1 0 1 0 -2 0 M 535 87 m -0.5 0 a 0.5 0.5 0 1 0 1 0 a 0.5 0.5 0 1 0 -1 0 M 535 87 L 535 87 L 523 87 M 529 93 L 529 93 L 529 81 M 523 87 Q 485.84 87 448.68 179.5 T 374.36 272 M 362.36 272 m -1 0 a 1 1 0 1 0 2 0 a 1 1 0 1 0 -2 0 M 362.36 272 m -0.5 0 a 0.5 0.5 0 1 0 1 0 a 0.5 0.5 0 1 0 -1 0 M 362.36 272 L 362.36 272 L 374.36 272 M 368.36 278 L 368.36 278 L 368.36 266" /></g><g class="hrs" /><g class="ts"><svg class="t" id="h3708248841" x="30" y="30" width="149.36" height="100"><rect class="th" width="149.36" height="40" /><text class="tht" x="13" y="25">Departments</text><rect class="t-bg" y="40" width="149.36" height="60" /><text class="tf pk" x="13" y="61">dept_no<tspan class="ty" x="136.36">varchar</tspan></text><path class="i pk" transform="translate(76.35 48) scale(0.65)" d="M 7 14 A 2 2 0 0 1 5 12 A 2 2 0 0 1 7 10 A 2 2 0 0 1 9 12 A 2 2 0 0 1 7 14 M 12.65 10 C 11.83 7.67 9.61 6 7 6 A 6 6 0 0 0 1 12 A 6 6 0 0 0 7 18 C 9.61 18 11.83 16.33 12.65 14 H 17 V 18 H 21 V 14 H 23 V 10 H 12.65 Z" /><text class="tf" x="13" y="86">dept_name<tspan class="ty" x="136.36">varchar</tspan></text></svg><svg class="t" id="h3299212598" x="213" y="215" width="149.36" height="200"><rect class="th" width="149.36" height="40" /><text class="tht" x="13" y="25">Employees</text><rect class="t-bg" y="40" width="149.36" height="160" /><text class="tf pk" x="13" y="61">emp_no<tspan class="ty" x="136.36">varchar</tspan></text><path class="i pk" transform="translate(76.35 48) scale(0.65)" d="M 7 14 A 2 2 0 0 1 5 12 A 2 2 0 0 1 7 10 A 2 2 0 0 1 9 12 A 2 2 0 0 1 7 14 M 12.65 10 C 11.83 7.67 9.61 6 7 6 A 6 6 0 0 0 1 12 A 6 6 0 0 0 7 18 C 9.61 18 11.83 16.33 12.65 14 H 17 V 18 H 21 V 14 H 23 V 10 H 12.65 Z" /><text class="tf" x="13" y="86">birth_date<tspan class="ty" x="136.36">date</tspan></text><text class="tf" x="13" y="111">first_name<tspan class="ty" x="136.36">varchar</tspan></text><text class="tf" x="13" y="136">last_name<tspan class="ty" x="136.36">varchar</tspan></text><text class="tf" x="13" y="161">gender<tspan class="ty" x="136.36">varchar</tspan></text><text class="tf" x="13" y="186">hire_date<tspan class="ty" x="136.36">date</tspan></text></svg><svg class="t" id="h526843498" x="517" y="239" width="149.36" height="150"><rect class="th" width="149.36" height="40" /><text class="tht" x="13" y="25">Managers</text><rect class="t-bg" y="40" width="149.36" height="110" /><text class="tf pk" x="13" y="61">dept_no<tspan class="ty" x="136.36">varchar</tspan></text><path class="i pk" transform="translate(76.35 48) scale(0.65)" d="M 7 14 A 2 2 0 0 1 5 12 A 2 2 0 0 1 7 10 A 2 2 0 0 1 9 12 A 2 2 0 0 1 7 14 M 12.65 10 C 11.83 7.67 9.61 6 7 6 A 6 6 0 0 0 1 12 A 6 6 0 0 0 7 18 C 9.61 18 11.83 16.33 12.65 14 H 17 V 18 H 21 V 14 H 23 V 10 H 12.65 Z" /><text class="tf fk" x="13" y="86">emp_no<tspan class="ty" x="136.36">int</tspan></text><text class="tf" x="13" y="111">from_date</text><text class="tf" x="13" y="136">to_date</text></svg><svg class="t" id="h3517680912" x="205" y="30" width="149.36" height="150"><rect class="th" width="149.36" height="40" /><text class="tht" x="13" y="25">Titles</text><rect class="t-bg" y="40" width="149.36" height="110" /><text class="tf pk" x="13" y="61">emp_no<tspan class="ty" x="136.36">varchar</tspan></text><path class="i pk" transform="translate(76.35 48) scale(0.65)" d="M 7 14 A 2 2 0 0 1 5 12 A 2 2 0 0 1 7 10 A 2 2 0 0 1 9 12 A 2 2 0 0 1 7 14 M 12.65 10 C 11.83 7.67 9.61 6 7 6 A 6 6 0 0 0 1 12 A 6 6 0 0 0 7 18 C 9.61 18 11.83 16.33 12.65 14 H 17 V 18 H 21 V 14 H 23 V 10 H 12.65 Z" /><text class="tf" x="13" y="86">title</text><text class="tf" x="13" y="111">from_date</text><text class="tf" x="13" y="136">to_date</text></svg><svg class="t" id="h3858243705" x="535" y="30" width="149.36" height="150"><rect class="th" width="149.36" height="40" /><text class="tht" x="13" y="25">Salaries</text><rect class="t-bg" y="40" width="149.36" height="110" /><text class="tf pk" x="13" y="61">emp_no<tspan class="ty" x="136.36">varchar</tspan></text><path class="i pk" transform="translate(76.35 48) scale(0.65)" d="M 7 14 A 2 2 0 0 1 5 12 A 2 2 0 0 1 7 10 A 2 2 0 0 1 9 12 A 2 2 0 0 1 7 14 M 12.65 10 C 11.83 7.67 9.61 6 7 6 A 6 6 0 0 0 1 12 A 6 6 0 0 0 7 18 C 9.61 18 11.83 16.33 12.65 14 H 17 V 18 H 21 V 14 H 23 V 10 H 12.65 Z" /><text class="tf" x="13" y="86">salary</text><text class="tf" x="13" y="111">from_date</text><text class="tf" x="13" y="136">to-date</text></svg></g></g><text class="qdbd-link" y="20" x="10">www.quickdatabasediagrams.com</text></svg>